<svg width="2732" height="2732" viewBox="0 0 2732 2732" xmlns="http://www.w3.org/2000/svg">
  <!-- Background gradient -->
  <defs>
    <linearGradient id="splashGradient" x1="0%" y1="0%" x2="100%" y2="100%">
      <stop offset="0%" style="stop-color:#0066CC;stop-opacity:1" />
      <stop offset="100%" style="stop-color:#004C99;stop-opacity:1" />
    </linearGradient>
    <linearGradient id="textGradient" x1="0%" y1="0%" x2="0%" y2="100%">
      <stop offset="0%" style="stop-color:#FFFFFF;stop-opacity:1" />
      <stop offset="100%" style="stop-color:#E6F2FF;stop-opacity:0.95" />
    </linearGradient>
  </defs>

  <!-- Background -->
  <rect width="2732" height="2732" fill="url(#splashGradient)"/>

  <!-- Centered app icon -->
  <g transform="translate(854, 854)">
    <rect width="1024" height="1024" rx="180" fill="rgba(255,255,255,0.1)"/>

    <!-- Property/house icon -->
    <path d="M 512 250 L 750 420 L 750 700 L 650 700 L 650 550 L 374 550 L 374 700 L 274 700 L 274 420 Z"
          fill="rgba(255,255,255,0.15)"/>

    <!-- "C" lettermark -->
    <path d="M 680 512 C 680 626 598 720 512 720 C 426 720 344 626 344 512 C 344 398 426 304 512 304 C 558 304 600 324 632 356 L 582 424 C 562 402 538 390 512 390 C 472 390 432 442 432 512 C 432 582 472 634 512 634 C 552 634 592 582 592 512 L 592 480 L 512 480 L 512 410 L 680 410 Z"
          fill="url(#textGradient)"/>
  </g>

  <!-- App name below icon -->
  <text x="1366" y="2100" font-family="Arial, sans-serif" font-size="80" font-weight="bold"
        fill="#FFFFFF" text-anchor="middle" letter-spacing="4">
    CLUES
  </text>

  <text x="1366" y="2200" font-family="Arial, sans-serif" font-size="48" font-weight="normal"
        fill="rgba(255,255,255,0.9)" text-anchor="middle" letter-spacing="2">
    Property Intelligence
  </text>

  <!-- Tagline -->
  <text x="1366" y="2500" font-family="Arial, sans-serif" font-size="36" font-weight="300"
        fill="rgba(255,255,255,0.7)" text-anchor="middle" letter-spacing="1">
    Advanced Real Estate Analytics
  </text>
</svg>
